<svg width="65" height="58" viewBox="0 0 65 58" fill="none" xmlns="http://www.w3.org/2000/svg">
    <path
        d="M65 50.663L58.2803 57.3475L57.6246 58H29.1401C23.8337 58 18.8566 56.5877 14.5701 54.1169C10.1466 51.5736 6.45746 47.9022 3.90187 43.5C3.53761 42.8823 3.19959 42.2472 2.88487 41.5976C1.03739 37.787 0 33.5153 0 29C0 23.7191 1.41912 18.7659 3.90187 14.5C6.45746 10.0978 10.1466 6.4264 14.5701 3.8831C15.2986 3.4597 16.0504 3.0711 16.8197 2.7144C20.5613 0.9715 24.7371 0 29.1401 0C34.4466 0 39.4237 1.4123 43.7102 3.8831C48.1337 6.4264 51.8228 10.0978 54.3784 14.5C56.8612 18.7659 58.2803 23.7191 58.2803 29C58.2803 33.3819 57.3041 37.5376 55.5528 41.2612C55.5032 41.3743 55.4479 41.4874 55.3954 41.5976H36.3611C40.6243 39.1732 43.5383 34.6666 43.7015 29.4669L43.7102 29.4756V29C43.7102 20.9931 37.1857 14.5 29.1401 14.5H28.6622L28.671 14.5087C20.841 14.7552 14.5701 21.1497 14.5701 29C14.5701 34.394 17.5307 39.1007 21.9192 41.5976C24.0464 42.8098 26.5117 43.5 29.1401 43.5H57.8024L65 50.663Z"
        fill="#4D4ABF" />
</svg>