<svg width="50" height="50" viewBox="0 0 50 50" fill="none" xmlns="http://www.w3.org/2000/svg">
    <path
        d="M41.6655 14.5836H8.33219C6.03101 14.5836 4.16553 16.4491 4.16553 18.7503V39.5836C4.16553 41.8848 6.03101 43.7503 8.33219 43.7503H41.6655C43.9667 43.7503 45.8322 41.8848 45.8322 39.5836V18.7503C45.8322 16.4491 43.9667 14.5836 41.6655 14.5836Z"
        stroke="white" stroke-width="2" stroke-linecap="round" stroke-linejoin="round" />
    <path
        d="M33.3322 43.75V10.4167C33.3322 9.3116 32.8932 8.25179 32.1118 7.47039C31.3304 6.68899 30.2706 6.25 29.1655 6.25H20.8322C19.7271 6.25 18.6673 6.68899 17.8859 7.47039C17.1045 8.25179 16.6655 9.3116 16.6655 10.4167V43.75"
        stroke="white" stroke-width="2" stroke-linecap="round" stroke-linejoin="round" />
</svg>