<svg width="15" height="13" viewBox="0 0 15 13" fill="none" xmlns="http://www.w3.org/2000/svg">
<path d="M13.5 0.5H1.5C0.675 0.5 0.00749999 1.175 0.00749999 2L0 11C0 11.825 0.675 12.5 1.5 12.5H13.5C14.325 12.5 15 11.825 15 11V2C15 1.175 14.325 0.5 13.5 0.5ZM13.2 3.6875L7.8975 7.0025C7.6575 7.1525 7.3425 7.1525 7.1025 7.0025L1.8 3.6875C1.7248 3.64528 1.65894 3.58825 1.60642 3.51984C1.55389 3.45143 1.5158 3.37308 1.49443 3.28953C1.47307 3.20597 1.46888 3.11895 1.48212 3.03373C1.49536 2.94851 1.52575 2.86686 1.57146 2.79373C1.61717 2.72059 1.67724 2.65749 1.74804 2.60825C1.81885 2.559 1.8989 2.52463 1.98337 2.50722C2.06784 2.48981 2.15496 2.48973 2.23947 2.50696C2.32397 2.5242 2.4041 2.5584 2.475 2.6075L7.5 5.75L12.525 2.6075C12.5959 2.5584 12.676 2.5242 12.7605 2.50696C12.845 2.48973 12.9322 2.48981 13.0166 2.50722C13.1011 2.52463 13.1812 2.559 13.252 2.60825C13.3228 2.65749 13.3828 2.72059 13.4285 2.79373C13.4742 2.86686 13.5046 2.94851 13.5179 3.03373C13.5311 3.11895 13.5269 3.20597 13.5056 3.28953C13.4842 3.37308 13.4461 3.45143 13.3936 3.51984C13.3411 3.58825 13.2752 3.64528 13.2 3.6875Z" fill="#2F2BAB"/>
</svg>
