<svg width="14" height="15" viewBox="0 0 14 15" fill="none" xmlns="http://www.w3.org/2000/svg">
<path d="M13.3474 2.71214L11.5379 0.904369C11.4103 0.776166 11.2586 0.674446 11.0915 0.605052C10.9244 0.535657 10.7453 0.499957 10.5644 0.5C10.1957 0.5 9.84912 0.644418 9.58918 0.904369L7.64212 2.85146C7.51392 2.9791 7.4122 3.13081 7.34281 3.29788C7.27341 3.46495 7.23771 3.64409 7.23776 3.825C7.23776 4.19369 7.38217 4.54029 7.64212 4.80024L9.06588 6.22403C8.73261 6.95862 8.26926 7.6269 7.69819 8.1966C7.12855 8.76907 6.46034 9.23412 5.72564 9.56942L4.30188 8.14563C4.17424 8.01743 4.02253 7.91571 3.85546 7.84631C3.68839 7.77692 3.50926 7.74122 3.32835 7.74126C2.95967 7.74126 2.61307 7.88568 2.35312 8.14563L0.404364 10.091C0.276006 10.2189 0.174199 10.3709 0.104803 10.5383C0.0354065 10.7056 -0.000210539 10.8851 9.36213e-07 11.0663C9.36213e-07 11.435 0.144416 11.7816 0.404364 12.0415L2.2104 13.8476C2.62496 14.2638 3.19753 14.5 3.78538 14.5C3.90941 14.5 4.02834 14.4898 4.14557 14.4694C6.43583 14.0922 8.70739 12.874 10.5406 11.0425C12.3721 9.21262 13.5886 6.94272 13.9709 4.64563C14.0864 3.94393 13.8537 3.22184 13.3474 2.71214Z" fill="#2F2BAB"/>
</svg>
