<svg width="1418" height="478" viewBox="0 0 1418 478" fill="none" xmlns="http://www.w3.org/2000/svg">
    <ellipse cx="63.7096" cy="428.309" rx="13.5431" ry="13.589" fill="white" />
    <path
        d="M76.2527 428.309C76.2527 435.265 70.6337 440.898 63.7096 440.898C56.7854 440.898 51.1665 435.265 51.1665 428.309C51.1665 421.353 56.7854 415.72 63.7096 415.72C70.6337 415.72 76.2527 421.353 76.2527 428.309Z"
        stroke="#4D4ABF" stroke-opacity="0.4" stroke-width="2" />
    <ellipse cx="89.3931" cy="238.533" rx="7.47204" ry="7.49735" fill="white" />
    <path
        d="M95.8651 238.533C95.8651 242.125 92.9643 245.03 89.3931 245.03C85.8218 245.03 82.921 242.125 82.921 238.533C82.921 234.941 85.8218 232.036 89.3931 232.036C92.9643 232.036 95.8651 234.941 95.8651 238.533Z"
        stroke="#4D4ABF" stroke-opacity="0.4" stroke-width="2" />
    <path
        d="M1357.77 217.446L1305.47 127.009L1267.64 311.631L1145.75 441.429M1145.75 441.429L1066.36 295.699L1158.83 184.645M1145.75 441.429L1158.83 184.645M1158.83 184.645L1088.31 156.061L1150.42 91.3963L1305.47 121.854M1158.83 184.645L966.422 190.268M957.549 190.268L788.027 76.4016L1079.9 156.061"
        stroke="black" stroke-opacity="0.4" stroke-width="0.5" />
    <path d="M1163.03 183.239L1301.73 128.414" stroke="black" stroke-opacity="0.4" stroke-width="0.5" />
    <path d="M795.972 77.8079L528.846 253.996L386.878 140.598L286.939 190.737L264.523 414.252" stroke="black"
        stroke-opacity="0.4" stroke-width="0.5" />
    <path
        d="M65.11 427.841L261.718 417.533L91.2621 239.002L281.799 200.109L196.338 99.8322L382.205 144.348V277.426L528.843 254.934L521.371 86.7118L797.37 81.5574L600.762 417.533"
        stroke="black" stroke-opacity="0.4" stroke-width="0.5" />
    <ellipse cx="280.398" cy="197.765" rx="13.5431" ry="13.589" fill="white" />
    <path
        d="M292.941 197.765C292.941 204.721 287.322 210.354 280.398 210.354C273.474 210.354 267.855 204.721 267.855 197.765C267.855 190.81 273.474 185.177 280.398 185.177C287.322 185.177 292.941 190.81 292.941 197.765Z"
        stroke="#4D4ABF" stroke-opacity="0.4" stroke-width="2" />
    <ellipse cx="1066.83" cy="294.294" rx="13.5431" ry="13.589" fill="white" />
    <path
        d="M1079.37 294.294C1079.37 301.25 1073.76 306.883 1066.83 306.883C1059.91 306.883 1054.29 301.25 1054.29 294.294C1054.29 287.338 1059.91 281.705 1066.83 281.705C1073.76 281.705 1079.37 287.338 1079.37 294.294Z"
        stroke="#4D4ABF" stroke-opacity="0.4" stroke-width="2" />
    <ellipse cx="795.5" cy="76.4021" rx="15.8781" ry="15.9319" fill="white" />
    <path
        d="M810.378 76.4021C810.378 84.6519 803.713 91.334 795.5 91.334C787.286 91.334 780.622 84.6519 780.622 76.4021C780.622 68.1523 787.286 61.4702 795.5 61.4702C803.713 61.4702 810.378 68.1523 810.378 76.4021Z"
        stroke="#4D4ABF" stroke-opacity="0.4" stroke-width="2" />
    <ellipse cx="1149.49" cy="92.3335" rx="15.8781" ry="15.9319" fill="white" />
    <path
        d="M1164.37 92.3335C1164.37 100.583 1157.71 107.265 1149.49 107.265C1141.28 107.265 1134.62 100.583 1134.62 92.3335C1134.62 84.0836 1141.28 77.4016 1149.49 77.4016C1157.71 77.4016 1164.37 84.0836 1164.37 92.3335Z"
        stroke="#4D4ABF" stroke-opacity="0.4" stroke-width="2" />
    <ellipse cx="262.648" cy="415.189" rx="18.2131" ry="18.2748" fill="#4D4ABF" fill-opacity="0.4" />
    <ellipse cx="966.887" cy="190.267" rx="18.2131" ry="18.2748" fill="#4D4ABF" fill-opacity="0.4" />
    <ellipse cx="383.137" cy="145.284" rx="13.5431" ry="13.589" fill="#4D4ABF" fill-opacity="0.4" />
    <ellipse cx="197.274" cy="100.3" rx="13.5431" ry="13.589" fill="#4D4ABF" fill-opacity="0.4" />
    <ellipse cx="521.373" cy="87.1805" rx="13.5431" ry="13.589" fill="#4D4ABF" fill-opacity="0.4" />
    <ellipse cx="383.137" cy="277.425" rx="13.5431" ry="13.589" fill="#4D4ABF" fill-opacity="0.4" />
    <ellipse cx="597.021" cy="423.624" rx="13.5431" ry="13.589" fill="#4D4ABF" fill-opacity="0.4" />
    <ellipse rx="7.96265" ry="7.98798" transform="matrix(0.984585 0.174909 -0.173766 0.984787 1303.49 126.897)"
        fill="#4D4ABF" fill-opacity="0.4" />
    <ellipse rx="7.96265" ry="7.98798" transform="matrix(0.984585 0.174909 -0.173766 0.984787 1158.71 184.064)"
        fill="#4D4ABF" fill-opacity="0.4" />
    <ellipse rx="7.96265" ry="7.98798" transform="matrix(0.984585 0.174909 -0.173766 0.984787 1357.65 217.801)"
        fill="#4D4ABF" fill-opacity="0.4" />
    <ellipse rx="4.8847" ry="4.90024" transform="matrix(0.984585 0.174909 -0.173766 0.984787 1267.37 313.563)"
        fill="#4D4ABF" fill-opacity="0.4" />
    <ellipse rx="7.96265" ry="7.98798" transform="matrix(0.984585 0.174909 -0.173766 0.984787 1145.65 441.786)"
        fill="#4D4ABF" fill-opacity="0.4" />
    <ellipse rx="7.96004" ry="7.98536" transform="matrix(0.984585 0.174909 -0.173766 0.984787 528.34 255.286)"
        fill="#4D4ABF" fill-opacity="0.4" />
    <path d="M387.342 140.598L519.037 87.6482" stroke="black" stroke-opacity="0.4" stroke-width="0.5" />
    <path d="M379.868 278.831L271.991 410.972M1160.23 185.114L1269.51 313.038" stroke="black" stroke-opacity="0.4"
        stroke-width="0.5" />
    <ellipse cx="1080.38" cy="158.872" rx="22.4161" ry="22.4921" fill="#4D4ABF" fill-opacity="0.4" />
</svg>