<svg width="18" height="18" viewBox="0 0 18 18" fill="none" xmlns="http://www.w3.org/2000/svg">
<path fill-rule="evenodd" clip-rule="evenodd" d="M3.69353 17.9998H0.0012207V6.92285H3.69353V17.9998Z" fill="#2F2BAB"/>
<path fill-rule="evenodd" clip-rule="evenodd" d="M1.8364 4.46135H1.81542C0.713556 4.46135 0.0012207 3.64046 0.0012207 2.61456C0.0012207 1.56696 0.735251 0.769043 1.85803 0.769043C2.9808 0.769043 3.67223 1.56696 3.69353 2.61456C3.69353 3.64046 2.9808 4.46135 1.8364 4.46135Z" fill="#2F2BAB"/>
<path fill-rule="evenodd" clip-rule="evenodd" d="M17.2318 17.9995H13.6036V12.2094C13.6036 10.7551 13.0785 9.76271 11.765 9.76271C10.7626 9.76271 10.1656 10.4317 9.90332 11.0779C9.80739 11.3095 9.78384 11.6321 9.78384 11.9556V17.9998H6.15503C6.15503 17.9998 6.20285 8.1928 6.15503 7.17727H9.78384V8.71019C10.2654 7.97329 11.1279 6.92285 13.0543 6.92285C15.442 6.92285 17.232 8.46999 17.232 11.7942L17.2318 17.9995Z" fill="#2F2BAB"/>
</svg>
