<svg width="50" height="50" viewBox="0 0 50 50" fill="none" xmlns="http://www.w3.org/2000/svg">
    <path
        d="M35.4167 43.75V39.5833C35.4167 37.3732 34.5387 35.2536 32.9759 33.6908C31.4131 32.128 29.2935 31.25 27.0834 31.25H10.4167C8.20657 31.25 6.08695 32.128 4.52415 33.6908C2.96135 35.2536 2.08337 37.3732 2.08337 39.5833V43.75"
        stroke="white" stroke-width="2" stroke-linecap="round" stroke-linejoin="round" />
    <path
        d="M18.75 22.9167C23.3523 22.9167 27.0833 19.1857 27.0833 14.5833C27.0833 9.98096 23.3523 6.25 18.75 6.25C14.1476 6.25 10.4166 9.98096 10.4166 14.5833C10.4166 19.1857 14.1476 22.9167 18.75 22.9167Z"
        stroke="white" stroke-width="2" stroke-linecap="round" stroke-linejoin="round" />
    <path
        d="M47.9166 43.75V39.5833C47.9152 37.7369 47.3007 35.9433 46.1695 34.484C45.0382 33.0247 43.4544 31.9824 41.6666 31.5208"
        stroke="white" stroke-width="2" stroke-linecap="round" stroke-linejoin="round" />
    <path
        d="M33.3334 6.52084C35.1259 6.9798 36.7147 8.0223 37.8493 9.48399C38.9839 10.9457 39.5997 12.7434 39.5997 14.5938C39.5997 16.4441 38.9839 18.2418 37.8493 19.7035C36.7147 21.1652 35.1259 22.2077 33.3334 22.6667"
        stroke="white" stroke-width="2" stroke-linecap="round" stroke-linejoin="round" />
</svg>